<svg xmlns="http://www.w3.org/2000/svg"  viewBox="0 0 48 48" width="48px" height="48px"><linearGradient id="SVGID_1_" x1="40.305" x2="13.293" y1="8.523" y2="35.535" gradientUnits="userSpaceOnUse"><stop offset="0" stop-color="#6560fe"/><stop offset=".15" stop-color="#837ffe"/><stop offset=".436" stop-color="#b8b6ff"/><stop offset=".684" stop-color="#dfdeff"/><stop offset=".88" stop-color="#f6f6ff"/><stop offset="1" stop-color="#fff"/></linearGradient><path fill="url(#SVGID_1_)" d="M10.087,12.043l2.563,26.842c0.198,2.05,1.922,3.615,3.981,3.615h14.737c2.06,0,3.783-1.564,3.981-3.615	l0.468-4.837L36.5,27L38,11.5L10.087,12.043z"/><path fill="none" stroke="#8251fe" stroke-miterlimit="10" stroke-width="3" d="M29.5,11.5V11c0-3.038-2.462-5.5-5.5-5.5s-5.5,2.462-5.5,5.5v0.5"/><line x1="7.5" x2="40.5" y1="11.5" y2="11.5" fill="none" stroke="#8251fe" stroke-linecap="round" stroke-miterlimit="10" stroke-width="3"/><line x1="36.5" x2="38" y1="27" y2="11.5" fill="none" stroke="#8251fe" stroke-linecap="round" stroke-miterlimit="10" stroke-width="3"/><path fill="none" stroke="#8251fe" stroke-linecap="round" stroke-miterlimit="10" stroke-width="3" d="M10.684,18.572l1.966,20.313c0.198,2.05,1.922,3.615,3.981,3.615h14.737c2.06,0,3.783-1.564,3.981-3.615	l0.468-4.837"/></svg>